<svg width="16" height="16" viewBox="0 0 16 16" fill="none" xmlns="http://www.w3.org/2000/svg">
<g clip-path="url(#clip0_1_4002)">
<path d="M8.59669 6H7.40335C6.9965 6 6.66669 6.32982 6.66669 6.73667V13.2633C6.66669 13.6702 6.9965 14 7.40335 14H8.59669C9.00354 14 9.33335 13.6702 9.33335 13.2633V6.73667C9.33335 6.32982 9.00354 6 8.59669 6Z" stroke="white" stroke-width="0.75" stroke-linecap="round" stroke-linejoin="round"/>
<path d="M13.2633 2H12.07C11.6631 2 11.3333 2.32982 11.3333 2.73667V13.2633C11.3333 13.6702 11.6631 14 12.07 14H13.2633C13.6702 14 14 13.6702 14 13.2633V2.73667C14 2.32982 13.6702 2 13.2633 2Z" stroke="white" stroke-width="0.75" stroke-linecap="round" stroke-linejoin="round"/>
<path d="M3.33333 14C4.06971 14 4.66667 13.4031 4.66667 12.6667C4.66667 11.9303 4.06971 11.3333 3.33333 11.3333C2.59695 11.3333 2 11.9303 2 12.6667C2 13.4031 2.59695 14 3.33333 14Z" stroke="white" stroke-width="0.75" stroke-linecap="round" stroke-linejoin="round"/>
</g>
<defs>
<clipPath id="clip0_1_4002">
<rect width="16" height="16" fill="white"/>
</clipPath>
</defs>
</svg>
