<svg width="16" height="16" viewBox="0 0 16 16" fill="none" xmlns="http://www.w3.org/2000/svg">
<g clip-path="url(#clip0_1_4010)">
<path d="M10 3.33334V4.66668" stroke="#A1A1AA" stroke-width="0.75" stroke-linecap="round" stroke-linejoin="round"/>
<path d="M10 7.33334V8.66668" stroke="#A1A1AA" stroke-width="0.75" stroke-linecap="round" stroke-linejoin="round"/>
<path d="M10 11.3333V12.6667" stroke="#A1A1AA" stroke-width="0.75" stroke-linecap="round" stroke-linejoin="round"/>
<path d="M3.33333 3.33334H12.6667C13.0203 3.33334 13.3594 3.47382 13.6095 3.72387C13.8595 3.97392 14 4.31305 14 4.66668V6.66668C13.6464 6.66668 13.3072 6.80715 13.0572 7.0572C12.8071 7.30725 12.6667 7.64639 12.6667 8.00001C12.6667 8.35363 12.8071 8.69277 13.0572 8.94282C13.3072 9.19287 13.6464 9.33334 14 9.33334V11.3333C14 11.687 13.8595 12.0261 13.6095 12.2762C13.3594 12.5262 13.0203 12.6667 12.6667 12.6667H3.33333C2.97971 12.6667 2.64057 12.5262 2.39052 12.2762C2.14048 12.0261 2 11.687 2 11.3333V9.33334C2.35362 9.33334 2.69276 9.19287 2.94281 8.94282C3.19286 8.69277 3.33333 8.35363 3.33333 8.00001C3.33333 7.64639 3.19286 7.30725 2.94281 7.0572C2.69276 6.80715 2.35362 6.66668 2 6.66668V4.66668C2 4.31305 2.14048 3.97392 2.39052 3.72387C2.64057 3.47382 2.97971 3.33334 3.33333 3.33334" stroke="#A1A1AA" stroke-width="0.75" stroke-linecap="round" stroke-linejoin="round"/>
</g>
<defs>
<clipPath id="clip0_1_4010">
<rect width="16" height="16" fill="white"/>
</clipPath>
</defs>
</svg>
