<svg width="16" height="16" viewBox="0 0 16 16" fill="none" xmlns="http://www.w3.org/2000/svg">
<g clip-path="url(#clip0_1_4019)">
<path d="M4.66665 4.66667C5.40303 4.66667 5.99998 4.06971 5.99998 3.33333C5.99998 2.59695 5.40303 2 4.66665 2C3.93027 2 3.33331 2.59695 3.33331 3.33333C3.33331 4.06971 3.93027 4.66667 4.66665 4.66667Z" stroke="#A1A1AA" stroke-width="0.75" stroke-linecap="round" stroke-linejoin="round"/>
<path d="M3.33335 14.6667V11.3333L2.66669 10.6667V8.00001C2.66669 7.8232 2.73693 7.65363 2.86195 7.52861C2.98697 7.40358 3.15654 7.33334 3.33335 7.33334H6.00002C6.17683 7.33334 6.3464 7.40358 6.47142 7.52861C6.59645 7.65363 6.66669 7.8232 6.66669 8.00001V10.6667L6.00002 11.3333V14.6667" stroke="#A1A1AA" stroke-width="0.75" stroke-linecap="round" stroke-linejoin="round"/>
<path d="M11.3333 4.66667C12.0697 4.66667 12.6667 4.06971 12.6667 3.33333C12.6667 2.59695 12.0697 2 11.3333 2C10.597 2 10 2.59695 10 3.33333C10 4.06971 10.597 4.66667 11.3333 4.66667Z" stroke="#A1A1AA" stroke-width="0.75" stroke-linecap="round" stroke-linejoin="round"/>
<path d="M10 14.6667V12H8.66669L10 8.00001C10 7.8232 10.0703 7.65363 10.1953 7.52861C10.3203 7.40358 10.4899 7.33334 10.6667 7.33334H12C12.1768 7.33334 12.3464 7.40358 12.4714 7.52861C12.5964 7.65363 12.6667 7.8232 12.6667 8.00001L14 12H12.6667V14.6667" stroke="#A1A1AA" stroke-width="0.75" stroke-linecap="round" stroke-linejoin="round"/>
</g>
<defs>
<clipPath id="clip0_1_4019">
<rect width="16" height="16" fill="white"/>
</clipPath>
</defs>
</svg>
