<svg width="16" height="16" viewBox="0 0 16 16" fill="none" xmlns="http://www.w3.org/2000/svg">
<g clip-path="url(#clip0_1_3800)">
<path d="M5.66667 6.33333C6.03486 6.33333 6.33333 6.03486 6.33333 5.66667C6.33333 5.29848 6.03486 5 5.66667 5C5.29848 5 5 5.29848 5 5.66667C5 6.03486 5.29848 6.33333 5.66667 6.33333Z" fill="#A1A1AA" stroke="#A1A1AA" stroke-linecap="round" stroke-linejoin="round"/>
<path d="M2.66669 4.66666V7.23933C2.66669 7.59733 2.80869 7.94066 3.06202 8.194L8.47269 13.6047C8.59805 13.73 8.74688 13.8295 8.91068 13.8974C9.07449 13.9652 9.25005 14.0001 9.42735 14.0001C9.60466 14.0001 9.78022 13.9652 9.94402 13.8974C10.1078 13.8295 10.2567 13.73 10.382 13.6047L13.6047 10.382C13.7301 10.2566 13.8295 10.1078 13.8974 9.944C13.9652 9.7802 14.0002 9.60463 14.0002 9.42733C14.0002 9.25003 13.9652 9.07446 13.8974 8.91066C13.8295 8.74686 13.7301 8.59803 13.6047 8.47266L8.19335 3.062C7.94031 2.809 7.59718 2.6668 7.23935 2.66666H4.66669C4.13625 2.66666 3.62755 2.87738 3.25247 3.25245C2.8774 3.62752 2.66669 4.13623 2.66669 4.66666V4.66666Z" stroke="#A1A1AA" stroke-linecap="round" stroke-linejoin="round"/>
</g>
<defs>
<clipPath id="clip0_1_3800">
<rect width="16" height="16" fill="white"/>
</clipPath>
</defs>
</svg>
