<svg width="720" height="1024" viewBox="0 0 720 1024" fill="none" xmlns="http://www.w3.org/2000/svg">
<path d="M820.485 -42.2715C784.334 -29.968 713.034 23.6208 717.044 139.547C722.057 284.456 831.421 375.137 858.763 511.843C878.942 612.742 876.079 865.456 753.043 971.631" stroke="white" stroke-opacity="0.06" stroke-width="1.5"/>
<path d="M765.515 -25.0049C729.364 -12.7014 658.064 40.8874 662.074 156.814C667.087 301.722 776.452 392.404 803.793 529.11C823.973 630.009 821.109 882.722 698.074 988.897" stroke="white" stroke-opacity="0.06" stroke-width="1.5"/>
<path d="M709.802 -10.3164C673.651 1.98713 602.351 55.5758 606.362 171.502C611.374 316.411 720.739 407.092 748.08 543.798C768.26 644.697 765.396 897.411 642.361 1003.59" stroke="white" stroke-opacity="0.06" stroke-width="1.5"/>
<path d="M653.377 1.33984C617.225 13.6434 545.926 67.2321 549.936 183.159C554.948 328.067 664.313 418.749 691.654 555.454C711.834 656.354 708.97 909.067 585.935 1015.24" stroke="white" stroke-opacity="0.06" stroke-width="1.5"/>
<path d="M596.325 9.38574C560.174 21.6893 488.874 75.278 492.884 191.205C497.897 336.113 607.261 426.794 634.602 563.5C654.782 664.4 651.919 917.113 528.883 1023.29" stroke="white" stroke-opacity="0.06" stroke-width="1.5"/>
<path d="M538.828 13.0977C502.677 25.4012 431.377 78.9899 435.387 194.917C440.399 339.825 549.764 430.506 577.105 567.212C597.285 668.111 594.421 920.825 471.386 1027" stroke="white" stroke-opacity="0.06" stroke-width="1.5"/>
<path d="M481.23 11.5879C445.079 23.8914 373.779 77.4801 377.789 193.407C382.802 338.315 492.167 428.997 519.508 565.703C539.688 666.602 536.824 919.315 413.788 1025.49" stroke="white" stroke-opacity="0.06" stroke-width="1.5"/>
<path d="M424.138 3.82812C387.987 16.1317 316.687 69.7204 320.697 185.647C325.71 330.555 435.075 421.237 462.416 557.943C482.596 658.842 479.732 911.555 356.697 1017.73" stroke="white" stroke-opacity="0.06" stroke-width="1.5"/>
<path d="M368.523 -11.2266C332.372 1.07697 261.072 54.6657 265.082 170.592C270.095 315.501 379.46 406.182 406.801 542.888C426.981 643.787 424.117 896.501 301.081 1002.68" stroke="white" stroke-opacity="0.06" stroke-width="1.5"/>
<path d="M306.191 -38.4316C270.04 -26.1281 198.74 27.4606 202.75 143.387C207.763 288.296 317.127 378.977 344.469 515.683C364.649 616.582 361.785 869.296 238.749 975.471" stroke="white" stroke-opacity="0.06" stroke-width="1.5"/>
<path d="M252.787 -60.0586C216.636 -47.7551 145.336 5.83366 149.346 121.76C154.358 266.669 263.723 357.35 291.064 494.056C311.244 594.955 308.38 847.669 185.345 953.844" stroke="white" stroke-opacity="0.06" stroke-width="1.5"/>
<path d="M197.779 -77.1992C161.628 -64.8957 90.328 -11.307 94.3381 104.62C99.3506 249.528 208.715 340.21 236.057 476.915C256.236 577.815 253.373 830.528 130.337 936.703" stroke="white" stroke-opacity="0.06" stroke-width="1.5"/>
<path d="M141.545 -89.748C105.393 -77.4445 34.0937 -23.8558 38.1037 92.0708C43.1162 236.979 152.481 327.661 179.822 464.367C200.002 565.266 197.138 817.979 74.1029 924.154" stroke="white" stroke-opacity="0.06" stroke-width="1.5"/>
<path d="M84.4801 -97.7061C48.3289 -85.4025 -22.9708 -31.8138 -18.9608 84.1128C-13.9482 229.021 95.4166 319.703 122.758 456.409C142.938 557.308 140.074 810.021 17.0385 916.196" stroke="white" stroke-opacity="0.06" stroke-width="1.5"/>
<path d="M26.9683 -101.174C-9.18279 -88.8703 -80.4825 -35.2816 -76.4725 80.645C-71.4599 225.553 37.9048 316.235 65.246 452.941C85.4259 553.84 82.5621 806.553 -40.4732 912.728" stroke="white" stroke-opacity="0.06" stroke-width="1.5"/>
<path d="M-30.643 -100.329C-66.7941 -88.0256 -138.094 -34.4368 -134.084 81.4898C-129.071 226.398 -19.7065 317.08 7.63469 453.786C27.8145 554.685 24.9508 807.398 -98.0846 913.573" stroke="white" stroke-opacity="0.06" stroke-width="1.5"/>
</svg>
