<svg width="61" height="44" viewBox="0 0 61 44" fill="none" xmlns="http://www.w3.org/2000/svg">
<path fill-rule="evenodd" clip-rule="evenodd" d="M59.2558 0.625373C57.8721 1.41583 55.6464 2.00099 52.4035 2.42701C50.4088 2.68923 47.3331 2.79758 39.7532 2.87314C30.954 2.96075 29.5311 3.02086 28.0312 3.36836C24.7731 4.12305 22.0589 5.73168 20.1416 8.04441C18.8329 9.62299 18.6404 9.99102 17.276 13.5223L16.1723 16.3794L14.1284 16.5282C11.5132 16.7187 9.97954 17.0378 8.63396 17.6719C6.56774 18.6456 5.24557 20.4512 4.75115 22.9743C4.42561 24.6348 4.8241 26.1554 5.92215 27.443C6.76572 28.4322 7.07312 28.5549 7.07312 27.9029C7.07312 27.0714 7.67169 26.2803 8.59369 25.8934C9.36557 25.5694 10.3382 25.5 15.2459 25.4196C20.7855 25.3288 20.9887 25.3396 20.8538 25.7199C20.6472 26.3017 20.123 26.8538 19.4076 27.2434C18.925 27.5065 17.9533 27.6144 15.3138 27.698L11.8528 27.8076L10.5518 31.2996C7.88949 38.4456 6.23398 40.6959 1.98979 42.9376L0.5 43.7246L1.3092 43.8588C2.84411 44.1134 8.6677 44.0042 10.4716 43.687C16.2621 42.669 20.4239 39.8333 22.6668 35.3776C23.032 34.6523 24.0623 32.1286 24.9565 29.7693L26.5823 25.4797L33.1149 25.3571C40.3792 25.2206 41.1344 25.0991 44.2672 23.5621C47.1054 22.1693 50.0468 19.4439 51.2663 17.0767L51.5709 16.4852H40.8129C32.8195 16.4852 30.0546 16.4224 30.0546 16.2408C30.0546 16.1064 30.4358 15.6323 30.9017 15.1875C32.1455 13.9998 33.2245 13.7676 38.1719 13.6227C42.7066 13.49 45.6792 13.1408 48.1159 12.4544C53.4704 10.9463 57.1624 8.20378 59.1204 4.28008C59.785 2.94827 60.7169 -0.0406383 60.4546 0.000418721C60.3751 0.0129051 59.8356 0.294166 59.2558 0.625373ZM11.4931 19.6504C11.9985 19.9715 11.517 20.9744 10.6538 21.3992C9.13723 22.1452 8.4149 21.2432 9.58695 20.0667C10.2072 19.4441 10.922 19.2879 11.4931 19.6504Z" fill="#18181B"/>
</svg>
